<svg width="0" height="0" class="hidden">
  <symbol xmlns="http://www.w3.org/2000/svg" viewBox="0 0 97.75 97.75" id="vk">
    <path d="M48.875 0C21.883 0 0 21.882 0 48.875S21.883 97.75 48.875 97.75 97.75 75.868 97.75 48.875 75.867 0 48.875 0zm24.792 54.161c2.278 2.225 4.688 4.319 6.733 6.774.906 1.086 1.76 2.209 2.41 3.472.928 1.801.09 3.776-1.522 3.883l-10.013-.002c-2.586.214-4.644-.829-6.379-2.597-1.385-1.409-2.67-2.914-4.004-4.371-.545-.598-1.119-1.161-1.803-1.604-1.365-.888-2.551-.616-3.333.81-.797 1.451-.979 3.059-1.055 4.674-.109 2.361-.821 2.978-3.19 3.089-5.062.237-9.865-.531-14.329-3.083-3.938-2.251-6.986-5.428-9.642-9.025-5.172-7.012-9.133-14.708-12.692-22.625-.801-1.783-.215-2.737 1.752-2.774 3.268-.063 6.536-.055 9.804-.003 1.33.021 2.21.782 2.721 2.037 1.766 4.345 3.931 8.479 6.644 12.313.723 1.021 1.461 2.039 2.512 2.76 1.16.796 2.044.533 2.591-.762.35-.823.501-1.703.577-2.585.26-3.021.291-6.041-.159-9.05-.28-1.883-1.339-3.099-3.216-3.455-.956-.181-.816-.535-.351-1.081.807-.944 1.563-1.528 3.074-1.528l11.313-.002c1.783.35 2.183 1.15 2.425 2.946l.01 12.572c-.021.695.349 2.755 1.597 3.21 1 .33 1.66-.472 2.258-1.105 2.713-2.879 4.646-6.277 6.377-9.794.764-1.551 1.423-3.156 2.063-4.764.476-1.189 1.216-1.774 2.558-1.754l10.894.013c.321 0 .647.003.965.058 1.836.314 2.339 1.104 1.771 2.895-.894 2.814-2.631 5.158-4.329 7.508-1.82 2.516-3.761 4.944-5.563 7.471-1.656 2.31-1.525 3.473.531 5.479z"></path>
  </symbol>
  <symbol xmlns="http://www.w3.org/2000/svg" viewBox="0 0 448 448" id="envelope">
    <path d="M314.375 144h-180.75L224 221.465zm0 0"></path>
    <path d="M224 240a7.986 7.986 0 01-5.207-1.93L120 153.39V304h208V153.39l-98.793 84.68A7.986 7.986 0 01224 240zm0 0"></path>
    <path d="M224 0C100.29 0 0 100.29 0 224s100.29 224 224 224 224-100.29 224-224C447.86 100.348 347.652.14 224 0zm120 312a8 8 0 01-8 8H112a8 8 0 01-8-8V136a8 8 0 018-8h224a8 8 0 018 8zm0 0"></path>
  </symbol>
   <symbol xmlns="http://www.w3.org/2000/svg" viewBox="0 0 512 512" id="phone">
    <path d="M436.992 74.953c-99.989-99.959-262.08-99.935-362.039.055s-99.935 262.08.055 362.039 262.08 99.935 362.039-.055a256 256 0 00-.055-362.039zm-49.289 281.652l-.034.034v-.085l-12.971 12.885a68.267 68.267 0 01-64.427 18.432 226.834 226.834 0 01-65.877-29.525 304.371 304.371 0 01-51.968-41.899 306.71 306.71 0 01-38.827-47.104 238.907 238.907 0 01-29.184-59.051 68.265 68.265 0 0117.067-69.717l15.189-15.189c4.223-4.242 11.085-4.257 15.326-.034l.034.034 47.957 47.957c4.242 4.223 4.257 11.085.034 15.326l-.034.034-28.16 28.16c-8.08 7.992-9.096 20.692-2.389 29.867a329.334 329.334 0 0033.707 39.339 327.314 327.314 0 0044.373 37.291c9.167 6.394 21.595 5.316 29.525-2.56l27.221-27.648c4.223-4.242 11.085-4.257 15.326-.034l.034.034 48.043 48.128c4.243 4.222 4.258 11.083.035 15.325z"></path>
  </symbol>
  <symbol xmlns="http://www.w3.org/2000/svg" viewBox="0 0 438.549 438.549" id="github">
    <path d="M409.132 114.573c-19.608-33.596-46.205-60.194-79.798-79.8-33.598-19.607-70.277-29.408-110.063-29.408-39.781 0-76.472 9.804-110.063 29.408-33.596 19.605-60.192 46.204-79.8 79.8C9.803 148.168 0 184.854 0 224.63c0 47.78 13.94 90.745 41.827 128.906 27.884 38.164 63.906 64.572 108.063 79.227 5.14.954 8.945.283 11.419-1.996 2.475-2.282 3.711-5.14 3.711-8.562 0-.571-.049-5.708-.144-15.417a2549.81 2549.81 0 01-.144-25.406l-6.567 1.136c-4.187.767-9.469 1.092-15.846 1-6.374-.089-12.991-.757-19.842-1.999-6.854-1.231-13.229-4.086-19.13-8.559-5.898-4.473-10.085-10.328-12.56-17.556l-2.855-6.57c-1.903-4.374-4.899-9.233-8.992-14.559-4.093-5.331-8.232-8.945-12.419-10.848l-1.999-1.431c-1.332-.951-2.568-2.098-3.711-3.429-1.142-1.331-1.997-2.663-2.568-3.997-.572-1.335-.098-2.43 1.427-3.289 1.525-.859 4.281-1.276 8.28-1.276l5.708.853c3.807.763 8.516 3.042 14.133 6.851 5.614 3.806 10.229 8.754 13.846 14.842 4.38 7.806 9.657 13.754 15.846 17.847 6.184 4.093 12.419 6.136 18.699 6.136 6.28 0 11.704-.476 16.274-1.423 4.565-.952 8.848-2.383 12.847-4.285 1.713-12.758 6.377-22.559 13.988-29.41-10.848-1.14-20.601-2.857-29.264-5.14-8.658-2.286-17.605-5.996-26.835-11.14-9.235-5.137-16.896-11.516-22.985-19.126-6.09-7.614-11.088-17.61-14.987-29.979-3.901-12.374-5.852-26.648-5.852-42.826 0-23.035 7.52-42.637 22.557-58.817-7.044-17.318-6.379-36.732 1.997-58.24 5.52-1.715 13.706-.428 24.554 3.853 10.85 4.283 18.794 7.952 23.84 10.994 5.046 3.041 9.089 5.618 12.135 7.708 17.705-4.947 35.976-7.421 54.818-7.421s37.117 2.474 54.823 7.421l10.849-6.849c7.419-4.57 16.18-8.758 26.262-12.565 10.088-3.805 17.802-4.853 23.134-3.138 8.562 21.509 9.325 40.922 2.279 58.24 15.036 16.18 22.559 35.787 22.559 58.817 0 16.178-1.958 30.497-5.853 42.966-3.9 12.471-8.941 22.457-15.125 29.979-6.191 7.521-13.901 13.85-23.131 18.986-9.232 5.14-18.182 8.85-26.84 11.136-8.662 2.286-18.415 4.004-29.263 5.146 9.894 8.562 14.842 22.077 14.842 40.539v60.237c0 3.422 1.19 6.279 3.572 8.562 2.379 2.279 6.136 2.95 11.276 1.995 44.163-14.653 80.185-41.062 108.068-79.226 27.88-38.161 41.825-81.126 41.825-128.906-.01-39.771-9.818-76.454-29.414-110.049z"></path>
  </symbol>
  <symbol xmlns="http://www.w3.org/2000/svg" viewBox="0 0 24 24" id="skype">
    <path d="M23.309 14.547C25.047 6.737 18.205-.358 10.17 1.004 5.808-1.703 0 1.356 0 6.546c0 1.207.333 2.337.912 3.311-1.615 7.828 5.283 14.821 13.311 13.366 5.675 3.001 11.946-2.984 9.086-8.676zm-7.638 4.71c-2.108.867-5.577.872-7.676-.227-2.993-1.596-3.525-5.189-.943-5.189 1.946 0 1.33 2.269 3.295 3.194.902.417 2.841.46 3.968-.3 1.113-.745 1.011-1.917.406-2.477-1.603-1.48-6.19-.892-8.287-3.483-.911-1.124-1.083-3.107.037-4.545 1.952-2.512 7.68-2.665 10.143-.768 2.274 1.76 1.66 4.096-.175 4.096-2.207 0-1.047-2.888-4.61-2.888-2.583 0-3.599 1.837-1.78 2.731 2.466 1.225 8.75.816 8.75 5.603-.005 1.992-1.226 3.477-3.128 4.253z"></path>
  </symbol>
  <symbol xmlns="http://www.w3.org/2000/svg" viewBox="0 0 24 24" id="telegram">
    <path d="M12 24c6.629 0 12-5.371 12-12S18.629 0 12 0 0 5.371 0 12s5.371 12 12 12zM5.491 11.74l11.57-4.461c.537-.194 1.006.131.832.943l.001-.001-1.97 9.281c-.146.658-.537.818-1.084.508l-3-2.211-1.447 1.394c-.16.16-.295.295-.605.295l.213-3.053 5.56-5.023c.242-.213-.054-.333-.373-.121l-6.871 4.326-2.962-.924c-.643-.204-.657-.643.136-.953z"></path>
  </symbol>
  <symbol xmlns="http://www.w3.org/2000/svg" viewBox="0 0 512 512" id="whatsapp">
    <path d="M256.064 0h-.128C114.784 0 0 114.816 0 256c0 56 18.048 107.904 48.736 150.048l-31.904 95.104 98.4-31.456C155.712 496.512 204 512 256.064 512 397.216 512 512 397.152 512 256S397.216 0 256.064 0zm148.96 361.504c-6.176 17.44-30.688 31.904-50.24 36.128-13.376 2.848-30.848 5.12-89.664-19.264-75.232-31.168-123.68-107.616-127.456-112.576-3.616-4.96-30.4-40.48-30.4-77.216s18.656-54.624 26.176-62.304c6.176-6.304 16.384-9.184 26.176-9.184 3.168 0 6.016.16 8.576.288 7.52.32 11.296.768 16.256 12.64 6.176 14.88 21.216 51.616 23.008 55.392 1.824 3.776 3.648 8.896 1.088 13.856-2.4 5.12-4.512 7.392-8.288 11.744-3.776 4.352-7.36 7.68-11.136 12.352-3.456 4.064-7.36 8.416-3.008 15.936 4.352 7.36 19.392 31.904 41.536 51.616 28.576 25.44 51.744 33.568 60.032 37.024 6.176 2.56 13.536 1.952 18.048-2.848 5.728-6.176 12.8-16.416 20-26.496 5.12-7.232 11.584-8.128 18.368-5.568 6.912 2.4 43.488 20.48 51.008 24.224 7.52 3.776 12.48 5.568 14.304 8.736 1.792 3.168 1.792 18.048-4.384 35.52z"></path>
  </symbol>
   <symbol xmlns="http://www.w3.org/2000/svg" viewBox="0 0 512 512" id="verified">
    <path d="M437.019 74.98C388.667 26.629 324.38 0 256 0 187.619 0 123.331 26.629 74.98 74.98 26.628 123.332 0 187.62 0 256s26.628 132.667 74.98 181.019C123.332 485.371 187.619 512 256 512c68.38 0 132.667-26.629 181.019-74.981C485.371 388.667 512 324.38 512 256s-26.629-132.667-74.981-181.02zM256 482C131.383 482 30 380.617 30 256S131.383 30 256 30s226 101.383 226 226-101.383 226-226 226z"></path>
    <path d="M378.305 173.859c-5.857-5.856-15.355-5.856-21.212.001L224.634 306.319l-69.727-69.727c-5.857-5.857-15.355-5.857-21.213 0-5.858 5.857-5.858 15.355 0 21.213l80.333 80.333a14.953 14.953 0 0010.606 4.393c3.838 0 7.678-1.465 10.606-4.393l143.066-143.066c5.858-5.857 5.858-15.355 0-21.213z"></path>
  </symbol>
  <symbol xmlns="http://www.w3.org/2000/svg" viewBox="0 0 512 512" id="link">
    <path d="M476.853 35.148c-46.864-46.864-122.842-46.864-169.706-.001L206.853 135.441c-48.475 48.477-43.987 125.717 0 169.706 7.366 7.366 15.516 13.372 24.122 18.305l18.305-18.305c12.006-12.008 7.78-26.045 7.564-36.174-2.635-1.868-5.198-3.887-7.564-6.253-22.573-22.571-23.588-61.265 0-84.853L349.572 77.575c23.399-23.399 61.454-23.399 84.853 0 23.399 23.399 23.399 61.454 0 84.853l-66.293 66.293c1.917 10.607 13.422 35.733 7.504 77.181.289-.284.635-.467.923-.754l100.294-100.294c46.862-46.864 46.862-122.842 0-169.706z"></path>
    <path d="M312.918 199.081c-7.365-7.366-15.516-13.372-24.12-18.305l-18.305 18.305c-12.008 12.006-7.782 26.043-7.566 36.172 2.637 1.868 5.2 3.887 7.566 6.253 22.573 22.573 23.588 61.265 0 84.853L162.427 434.425c-23.399 23.399-61.454 23.399-84.853 0-23.399-23.399-23.399-61.454 0-84.853l74.067-74.067c-1.917-10.607-13.423-35.733-7.504-77.181-.289.284-.637.469-.925.756L35.147 307.147c-46.862 46.864-46.862 122.842 0 169.706 46.864 46.862 122.841 46.862 169.705 0l108.066-108.066c47.576-47.576 44.976-124.731 0-169.706z"></path>
  </symbol>
  <symbol xmlns="http://www.w3.org/2000/svg" viewBox="0 0 23.625 23.625" id="information">
    <path d="M11.812 0C5.289 0 0 5.289 0 11.812s5.289 11.813 11.812 11.813 11.813-5.29 11.813-11.813S18.335 0 11.812 0zm2.459 18.307c-.608.24-1.092.422-1.455.548a3.838 3.838 0 01-1.262.189c-.736 0-1.309-.18-1.717-.539s-.611-.814-.611-1.367c0-.215.015-.435.045-.659a8.23 8.23 0 01.147-.759l.761-2.688c.067-.258.125-.503.171-.731.046-.23.068-.441.068-.633 0-.342-.071-.582-.212-.717-.143-.135-.412-.201-.813-.201-.196 0-.398.029-.605.09-.205.063-.383.12-.529.176l.201-.828c.498-.203.975-.377 1.43-.521a4.225 4.225 0 011.29-.218c.731 0 1.295.178 1.692.53.395.353.594.812.594 1.376 0 .117-.014.323-.041.617a4.129 4.129 0 01-.152.811l-.757 2.68a7.582 7.582 0 00-.167.736 3.892 3.892 0 00-.073.626c0 .356.079.599.239.728.158.129.435.194.827.194.185 0 .392-.033.626-.097.232-.064.4-.121.506-.17l-.203.827zm-.134-10.878a1.807 1.807 0 01-1.275.492c-.496 0-.924-.164-1.28-.492a1.57 1.57 0 01-.533-1.193c0-.465.18-.865.533-1.196a1.812 1.812 0 011.28-.497c.497 0 .923.165 1.275.497.353.331.53.731.53 1.196 0 .467-.177.865-.53 1.193z"></path>
  </symbol>
  <symbol xmlns="http://www.w3.org/2000/svg" viewBox="0 0 512 512" id="html">
    <path d="M315.36 4.64A16.001 16.001 0 00304 0H48C21.49 0 0 21.491 0 48v416c0 26.51 21.49 48 48 48h112v-32H48c-8.837 0-16-7.163-16-16V48c0-8.837 7.163-16 16-16h240v64c0 17.673 14.327 32 32 32h64v48h32v-64a15.997 15.997 0 00-4.64-11.36l-96-96z"></path>
    <path d="M176 288h32v128h32V288h32v-32h-96zm-48 32H96v-64H64v160h32v-64h32v64h32V256h-32zm278.08-62.72a16 16 0 00-17.44 3.52L352 297.44l-36.64-36.64c-6.223-6.274-16.353-6.316-22.627-.093A16 16 0 00288 272v144h32V310.56l20.64 20.64c6.241 6.204 16.319 6.204 22.56 0l20.8-20.64V416h32V272a16 16 0 00-9.92-14.72zM464 384V256h-32v144c0 8.837 7.163 16 16 16h64v-32h-48z"></path>
  </symbol>
  <symbol xmlns="http://www.w3.org/2000/svg" viewBox="-25 0 512 512" id="css">
    <path d="M66.805 60c0-11.027 8.972-20 20-20h174.89v71.11c0 33.085 26.914 60 60 60h71V290h40V142.855L290.563 0H86.804c-33.082 0-60 26.914-60 60v230h40zm234.89 51.11V67.897l62.89 63.211h-42.89c-11.027 0-20-8.968-20-20zm160.11 345.39c0 30.602-24.895 55.5-55.5 55.5h-89.5v-40h89.5c8.547 0 15.5-6.953 15.5-15.5s-6.953-15.5-15.5-15.5h-34c-30.602 0-55.5-24.898-55.5-55.5s24.898-55.5 55.5-55.5h68.5v40h-68.5c-8.547 0-15.5 6.953-15.5 15.5s6.953 15.5 15.5 15.5h34c30.605 0 55.5 24.898 55.5 55.5zm-160 0c0 30.602-24.895 55.5-55.5 55.5h-89.5v-40h89.5c8.547 0 15.5-6.953 15.5-15.5s-6.953-15.5-15.5-15.5h-34c-30.602 0-55.5-24.898-55.5-55.5s24.898-55.5 55.5-55.5h68.5v40h-68.5c-8.547 0-15.5 6.953-15.5 15.5s6.953 15.5 15.5 15.5h34c30.605 0 55.5 24.898 55.5 55.5zM40 421c0 28.121 22.855 51 50.945 51 7.215 0 14.184-1.477 20.711-4.39l16.297 36.53c-11.687 5.215-24.14 7.86-37.008 7.86C40.797 512 0 471.176 0 421c0-50.18 40.797-91 90.945-91 12.868 0 25.32 2.645 37.008 7.86l-16.297 36.527c-6.527-2.91-13.496-4.39-20.71-4.39C62.855 370 40 392.878 40 421zm0 0"></path>
  </symbol>
   <symbol xmlns="http://www.w3.org/2000/svg" viewBox="0 0 446.296 446.297" id="js">
    <path d="M381.902 113.195c-.944-28.551-1.467-67.126-1.188-95.697.01-1.274-.193-2.396-.482-3.453.553-6.226-3.098-12.796-11.07-12.588C268.521 4.098 167.903.157 67.266 0 58.895-.016 55.228 7.343 56.26 13.802c-.333 1.122-.566 2.328-.551 3.702 1.519 120.089 5.647 292.639 5.776 412.749 0 2.696.764 4.88 1.985 6.616.739 5.088 4.4 9.587 11.019 9.425 43.498-1.082 87.014-1.777 130.479-3.91 38.743-1.899 87.018.645 124.047-11.994 13.106-4.479 24.836-11.101 34.891-20.683 18.377-17.519 24.648-41.035 26.238-65.815 1.518-23.806-1.285-48.774-1.844-70.706-1.431-56.654-4.54-103.348-6.398-159.991zm-63.678 214.202c-7.084.04-13.929 5.57-10.766 14.065 6.368 17.088 9.278 38.304-.508 54.649-11.836 19.764-32.955 19.226-53.039 21.759-12.278 1.549-25.334.727-37.717 1.077-9.635.269-131.628 3.244-131.628 3.722-.287-115.605-4.108-283.668-5.652-399.266 92.917.401 185.808 3.593 278.725 1.607-.355 94.913 8.06 232.117 8.557 307.128-14.411-4.55-29.31-6.469-44.691-5.438-1.214.077-2.286.352-3.281.697zm9.074 79.019c9.334-15.899 11.659-35.409 6.81-56.559 11.237.437 22.318 2.604 32.804 7.053.051.127.082.264.127.396-3.408 25.06-19.256 40.436-39.741 49.11z"></path>
    <path d="M214.125 138.648c-23.97.858-47.936 1.668-71.929 1.732-15.089.041-15.089 23.44 0 23.399 10.135-.025 20.258-.238 30.389-.482 4.293 17.194 7.16 34.713 6.794 52.481-.134 6.495-.7 15.219-5.096 20.459-5.037 5.997-16.841-.716-21.848-3.26-13.421-6.825-25.263 13.36-11.809 20.2 24.298 12.359 50.396 11.745 59.476-17.718 6.941-22.525 1.965-49.83-3.585-72.846 5.873-.19 11.743-.358 17.613-.571 15.041-.53 15.092-23.934-.005-23.394zm50.927 28.58c-2.259-4.687-1.219-8.186-2.803-7.084 6.82-4.763 20.724-1.589 28.143-.695 14.959 1.8 14.792-21.622 0-23.399-15.63-1.876-39.472-4.014-48.338 12.708-7.124 13.431 1.696 29.364 8.587 40.908 8.491 14.226 19.108 27.226 26.304 42.216.59 1.224 1.412 4.265 1.696 5.361-7.276 3.819-22.855-.619-30.203-1.979-14.747-2.732-21.049 19.824-6.221 22.562 15.868 2.939 42.081 9.079 54.649-5.307 10.755-12.314 2.66-29.033-4.276-41.002-8.723-15.04-19.956-28.576-27.538-44.289z"></path>
  </symbol>
  <symbol xmlns="http://www.w3.org/2000/svg" viewBox="0 0 24 24" id="react">
    <circle cx="12" cy="12" fill="#607d8b" r="1.417"></circle>
    <path d="M12 24c-3.248 0-5-6.183-5-12S8.752 0 12 0s5 6.183 5 12-1.752 12-5 12zm0-22.5c-1.652 0-3.5 4.49-3.5 10.5s1.848 10.5 3.5 10.5 3.5-4.49 3.5-10.5S13.652 1.5 12 1.5z"></path>
    <path d="M18.874 19.507c-2.685 0-6.304-1.268-9.45-3.07-4.215-2.415-7.37-5.585-8.038-8.076-.238-.889-.166-1.672.214-2.325 1.674-2.879 7.935-1.361 12.977 1.526 4.215 2.415 7.37 5.585 8.038 8.076.238.89.167 1.672-.213 2.325-.631 1.083-1.91 1.544-3.528 1.544zM5.117 6.003c-1.126 0-1.918.267-2.22.787-.172.295-.193.693-.062 1.183.467 1.741 2.916 4.631 7.335 7.163 5.21 2.985 10.069 3.557 10.934 2.074.172-.295.192-.693.062-1.183-.467-1.741-2.916-4.631-7.335-7.163-3.387-1.94-6.625-2.861-8.714-2.861z"></path>
    <path d="M5.126 19.507c-1.619 0-2.897-.461-3.527-1.543-.38-.653-.452-1.436-.213-2.325.667-2.491 3.823-5.661 8.038-8.076C14.465 4.674 20.726 3.158 22.4 6.036c.38.653.452 1.436.213 2.325-.667 2.491-3.823 5.661-8.038 8.076-3.144 1.802-6.764 3.07-9.449 3.07zM18.883 6.003c-2.089 0-5.327.92-8.713 2.861-4.419 2.532-6.868 5.421-7.335 7.163-.131.49-.11.888.062 1.183.865 1.483 5.724.913 10.934-2.074 4.419-2.532 6.868-5.421 7.335-7.163.131-.49.11-.888-.062-1.183-.303-.519-1.095-.787-2.221-.787z"></path>
    <path d="M12 14c-1.103 0-2-.897-2-2s.897-2 2-2 2 .897 2 2-.897 2-2 2zm0-2.5a.5.5 0 100 1 .5.5 0 000-1z"></path>
  </symbol>
   <symbol xmlns="http://www.w3.org/2000/svg" viewBox="0 0 512 512" id="redux">
    <path d="M290.583 477.715c9.087-6.49 22.07-16.877 29.21-23.368 124.456 49.444 165.06-47.194 161.818-84.077-3.59-40.84-54.299-157.39-226.728-157.393-8.108 19.003-31.817 28.536-51.427 17.177-24.066-13.94-24.066-48.977 0-62.916 18.695-10.83 41.111-2.668 50.188 14.581 104.685-.532 222.046 43.93 254.864 167.65 23.67 89.225-75.634 193.24-217.925 128.346zm64.406-126.193c17.32-2.041 32.333-16.497 32.333-36.085 0-27.879-30.405-45.398-54.598-31.458-21.223 12.228-23.823 40.69-7.81 56.904C267.471 447.981 139.18 489.856 71.48 449.208c-37.49-22.51-76.15-103.092 13.982-177.262-2.597-8.438-6.492-22.719-8.439-33.105-162.047 122.116-45.399 316.424 137.312 240.755 49.398-20.458 102.958-56.213 140.653-128.074zm-197.604 41.46c24.227 13.94 54.675-3.58 54.675-31.458 0-23.266-21.205-39.3-42.303-35.873C35.742 75.325 317.897-73.33 354.196 163.544l32.456 9.737C363.052-17.261 220.585.174 174.945 38.765 140.74 67.688 49.3 169.46 143.772 343.792c-9.103 16.39-4.566 38.73 13.613 49.19z"></path>
  </symbol>
</svg>
