<?xml version="1.0" standalone="no"?>
<!DOCTYPE svg PUBLIC "-//W3C//DTD SVG 20010904//EN"
 "http://www.w3.org/TR/2001/REC-SVG-20010904/DTD/svg10.dtd">
<svg version="1.0" xmlns="http://www.w3.org/2000/svg"
 width="900.000000pt" height="900.000000pt" viewBox="0 0 900.000000 900.000000"
 preserveAspectRatio="xMidYMid meet">
<metadata>
Created by potrace 1.11, written by Peter Selinger 2001-2013
</metadata>
<g transform="translate(0.000000,900.000000) scale(0.100000,-0.100000)"
fill="#000000" stroke="none">
<path d="M4300 6943 c-628 -45 -1232 -361 -1621 -850 -437 -548 -600 -1255
-448 -1942 53 -240 177 -531 319 -745 230 -348 521 -606 896 -794 318 -159
642 -235 1009 -236 267 -1 473 31 710 109 360 118 647 295 915 564 364 366
577 796 652 1316 19 134 16 483 -6 625 -59 388 -204 733 -440 1050 -81 109
-297 330 -403 414 -446 350 -1026 529 -1583 489z m1150 -1073 l0 -230 -665 0
-665 0 0 -300 0 -300 585 0 585 0 0 -235 0 -235 -585 0 -585 0 0 -575 0 -575
-275 0 -275 0 0 1340 0 1340 940 0 940 0 0 -230z"/>
</g>
</svg>
