<svg width="0" height="0" class="hidden">
  <symbol xmlns="http://www.w3.org/2000/svg" viewBox="0 0 24 24" id="vk">
    <path d="M13.162 18.994c.609 0 .858-.406.851-.915-.031-1.917.714-2.949 2.059-1.604 1.488 1.488 1.796 2.519 3.603 2.519h3.2c.808 0 1.126-.26 1.126-.668 0-.863-1.421-2.386-2.625-3.504-1.686-1.565-1.765-1.602-.313-3.486C22.864 8.997 25.22 6 23.136 6h-3.981c-.772 0-.828.435-1.103 1.083-.995 2.347-2.886 5.387-3.604 4.922-.751-.485-.407-2.406-.35-5.261.015-.754.011-1.271-1.141-1.539A8.07 8.07 0 0011.148 5c-2.273 0-3.841.953-2.95 1.119 1.571.293 1.42 3.692 1.054 5.16-.638 2.556-3.036-2.024-4.035-4.305C4.976 6.426 4.902 6 4.042 6H.787C.295 6 0 6.16 0 6.516c0 .602 2.96 6.72 5.786 9.77 2.756 2.975 5.48 2.708 7.376 2.708z"></path>
  </symbol>
  <symbol xmlns="http://www.w3.org/2000/svg" viewBox="0 0 512 512" id="envelope">
    <path d="M10.688 95.156C80.958 154.667 204.26 259.365 240.5 292.01c4.865 4.406 10.083 6.646 15.5 6.646 5.406 0 10.615-2.219 15.469-6.604 36.271-32.677 159.573-137.385 229.844-196.896 4.375-3.698 5.042-10.198 1.5-14.719C494.625 69.99 482.417 64 469.333 64H42.667c-13.083 0-25.292 5.99-33.479 16.438-3.542 4.52-2.875 11.02 1.5 14.718z"></path>
    <path d="M505.813 127.406a10.618 10.618 0 00-11.375 1.542C416.51 195.01 317.052 279.688 285.76 307.885c-17.563 15.854-41.938 15.854-59.542-.021-33.354-30.052-145.042-125-208.656-178.917a10.674 10.674 0 00-11.375-1.542A10.674 10.674 0 000 137.083v268.25C0 428.865 19.135 448 42.667 448h426.667C492.865 448 512 428.865 512 405.333v-268.25a10.66 10.66 0 00-6.187-9.677z"></path>
  </symbol>
   <symbol xmlns="http://www.w3.org/2000/svg" viewBox="0 0 512 512" id="phone">
    <path d="M436.992 74.953c-99.989-99.959-262.08-99.935-362.039.055s-99.935 262.08.055 362.039 262.08 99.935 362.039-.055a256 256 0 00-.055-362.039zm-49.289 281.652l-.034.034v-.085l-12.971 12.885a68.267 68.267 0 01-64.427 18.432 226.834 226.834 0 01-65.877-29.525 304.371 304.371 0 01-51.968-41.899 306.71 306.71 0 01-38.827-47.104 238.907 238.907 0 01-29.184-59.051 68.265 68.265 0 0117.067-69.717l15.189-15.189c4.223-4.242 11.085-4.257 15.326-.034l.034.034 47.957 47.957c4.242 4.223 4.257 11.085.034 15.326l-.034.034-28.16 28.16c-8.08 7.992-9.096 20.692-2.389 29.867a329.334 329.334 0 0033.707 39.339 327.314 327.314 0 0044.373 37.291c9.167 6.394 21.595 5.316 29.525-2.56l27.221-27.648c4.223-4.242 11.085-4.257 15.326-.034l.034.034 48.043 48.128c4.243 4.222 4.258 11.083.035 15.325z"></path>
  </symbol>
  <symbol xmlns="http://www.w3.org/2000/svg" viewBox="0 0 438.549 438.549" id="github">
    <path d="M409.132 114.573c-19.608-33.596-46.205-60.194-79.798-79.8-33.598-19.607-70.277-29.408-110.063-29.408-39.781 0-76.472 9.804-110.063 29.408-33.596 19.605-60.192 46.204-79.8 79.8C9.803 148.168 0 184.854 0 224.63c0 47.78 13.94 90.745 41.827 128.906 27.884 38.164 63.906 64.572 108.063 79.227 5.14.954 8.945.283 11.419-1.996 2.475-2.282 3.711-5.14 3.711-8.562 0-.571-.049-5.708-.144-15.417a2549.81 2549.81 0 01-.144-25.406l-6.567 1.136c-4.187.767-9.469 1.092-15.846 1-6.374-.089-12.991-.757-19.842-1.999-6.854-1.231-13.229-4.086-19.13-8.559-5.898-4.473-10.085-10.328-12.56-17.556l-2.855-6.57c-1.903-4.374-4.899-9.233-8.992-14.559-4.093-5.331-8.232-8.945-12.419-10.848l-1.999-1.431c-1.332-.951-2.568-2.098-3.711-3.429-1.142-1.331-1.997-2.663-2.568-3.997-.572-1.335-.098-2.43 1.427-3.289 1.525-.859 4.281-1.276 8.28-1.276l5.708.853c3.807.763 8.516 3.042 14.133 6.851 5.614 3.806 10.229 8.754 13.846 14.842 4.38 7.806 9.657 13.754 15.846 17.847 6.184 4.093 12.419 6.136 18.699 6.136 6.28 0 11.704-.476 16.274-1.423 4.565-.952 8.848-2.383 12.847-4.285 1.713-12.758 6.377-22.559 13.988-29.41-10.848-1.14-20.601-2.857-29.264-5.14-8.658-2.286-17.605-5.996-26.835-11.14-9.235-5.137-16.896-11.516-22.985-19.126-6.09-7.614-11.088-17.61-14.987-29.979-3.901-12.374-5.852-26.648-5.852-42.826 0-23.035 7.52-42.637 22.557-58.817-7.044-17.318-6.379-36.732 1.997-58.24 5.52-1.715 13.706-.428 24.554 3.853 10.85 4.283 18.794 7.952 23.84 10.994 5.046 3.041 9.089 5.618 12.135 7.708 17.705-4.947 35.976-7.421 54.818-7.421s37.117 2.474 54.823 7.421l10.849-6.849c7.419-4.57 16.18-8.758 26.262-12.565 10.088-3.805 17.802-4.853 23.134-3.138 8.562 21.509 9.325 40.922 2.279 58.24 15.036 16.18 22.559 35.787 22.559 58.817 0 16.178-1.958 30.497-5.853 42.966-3.9 12.471-8.941 22.457-15.125 29.979-6.191 7.521-13.901 13.85-23.131 18.986-9.232 5.14-18.182 8.85-26.84 11.136-8.662 2.286-18.415 4.004-29.263 5.146 9.894 8.562 14.842 22.077 14.842 40.539v60.237c0 3.422 1.19 6.279 3.572 8.562 2.379 2.279 6.136 2.95 11.276 1.995 44.163-14.653 80.185-41.062 108.068-79.226 27.88-38.161 41.825-81.126 41.825-128.906-.01-39.771-9.818-76.454-29.414-110.049z"></path>
  </symbol>
  <symbol xmlns="http://www.w3.org/2000/svg" viewBox="0 0 24 24" id="skype">
    <path d="M23.309 14.547C25.047 6.737 18.205-.358 10.17 1.004 5.808-1.703 0 1.356 0 6.546c0 1.207.333 2.337.912 3.311-1.615 7.828 5.283 14.821 13.311 13.366 5.675 3.001 11.946-2.984 9.086-8.676zm-7.638 4.71c-2.108.867-5.577.872-7.676-.227-2.993-1.596-3.525-5.189-.943-5.189 1.946 0 1.33 2.269 3.295 3.194.902.417 2.841.46 3.968-.3 1.113-.745 1.011-1.917.406-2.477-1.603-1.48-6.19-.892-8.287-3.483-.911-1.124-1.083-3.107.037-4.545 1.952-2.512 7.68-2.665 10.143-.768 2.274 1.76 1.66 4.096-.175 4.096-2.207 0-1.047-2.888-4.61-2.888-2.583 0-3.599 1.837-1.78 2.731 2.466 1.225 8.75.816 8.75 5.603-.005 1.992-1.226 3.477-3.128 4.253z"></path>
  </symbol>
  <symbol xmlns="http://www.w3.org/2000/svg" viewBox="0 0 24 24" id="telegram">
    <path d="M12 24c6.629 0 12-5.371 12-12S18.629 0 12 0 0 5.371 0 12s5.371 12 12 12zM5.491 11.74l11.57-4.461c.537-.194 1.006.131.832.943l.001-.001-1.97 9.281c-.146.658-.537.818-1.084.508l-3-2.211-1.447 1.394c-.16.16-.295.295-.605.295l.213-3.053 5.56-5.023c.242-.213-.054-.333-.373-.121l-6.871 4.326-2.962-.924c-.643-.204-.657-.643.136-.953z"></path>
  </symbol>
  <symbol xmlns="http://www.w3.org/2000/svg" viewBox="0 0 512 512" id="whatsapp">
    <path d="M256.064 0h-.128C114.784 0 0 114.816 0 256c0 56 18.048 107.904 48.736 150.048l-31.904 95.104 98.4-31.456C155.712 496.512 204 512 256.064 512 397.216 512 512 397.152 512 256S397.216 0 256.064 0zm148.96 361.504c-6.176 17.44-30.688 31.904-50.24 36.128-13.376 2.848-30.848 5.12-89.664-19.264-75.232-31.168-123.68-107.616-127.456-112.576-3.616-4.96-30.4-40.48-30.4-77.216s18.656-54.624 26.176-62.304c6.176-6.304 16.384-9.184 26.176-9.184 3.168 0 6.016.16 8.576.288 7.52.32 11.296.768 16.256 12.64 6.176 14.88 21.216 51.616 23.008 55.392 1.824 3.776 3.648 8.896 1.088 13.856-2.4 5.12-4.512 7.392-8.288 11.744-3.776 4.352-7.36 7.68-11.136 12.352-3.456 4.064-7.36 8.416-3.008 15.936 4.352 7.36 19.392 31.904 41.536 51.616 28.576 25.44 51.744 33.568 60.032 37.024 6.176 2.56 13.536 1.952 18.048-2.848 5.728-6.176 12.8-16.416 20-26.496 5.12-7.232 11.584-8.128 18.368-5.568 6.912 2.4 43.488 20.48 51.008 24.224 7.52 3.776 12.48 5.568 14.304 8.736 1.792 3.168 1.792 18.048-4.384 35.52z"></path>
  </symbol>
   <symbol xmlns="http://www.w3.org/2000/svg" viewBox="0 0 512 512" id="verified">
    <path d="M437.019 74.98C388.667 26.629 324.38 0 256 0 187.619 0 123.331 26.629 74.98 74.98 26.628 123.332 0 187.62 0 256s26.628 132.667 74.98 181.019C123.332 485.371 187.619 512 256 512c68.38 0 132.667-26.629 181.019-74.981C485.371 388.667 512 324.38 512 256s-26.629-132.667-74.981-181.02zM256 482C131.383 482 30 380.617 30 256S131.383 30 256 30s226 101.383 226 226-101.383 226-226 226z"></path>
    <path d="M378.305 173.859c-5.857-5.856-15.355-5.856-21.212.001L224.634 306.319l-69.727-69.727c-5.857-5.857-15.355-5.857-21.213 0-5.858 5.857-5.858 15.355 0 21.213l80.333 80.333a14.953 14.953 0 0010.606 4.393c3.838 0 7.678-1.465 10.606-4.393l143.066-143.066c5.858-5.857 5.858-15.355 0-21.213z"></path>
  </symbol>
</svg>
